<svg id="earth" xmlns="http://www.w3.org/2000/svg" xmlns:xlink="http://www.w3.org/1999/xlink" viewBox="0 0 1008 1010"><defs><style>.cls-1{fill:url(#radial-gradient);}.cls-2{fill:#0a5617;}</style><radialGradient id="radial-gradient" cx="504.58" cy="504.55" r="489.53" gradientUnits="userSpaceOnUse"><stop offset="0" stop-color="#008ad4"/><stop offset="1" stop-color="#005c94"/></radialGradient></defs><title>earth</title><circle class="cls-1" cx="504.58" cy="504.55" r="489.53"/><path class="cls-2" d="M512.33,137.78s17.31-37.09,75.41-33.38c0,0,84.07-29.67,128.58,3.71,0,0,76.65,2.47,27.2,27.2,0,0-24.73,11.12-16.08,37.09,0,0,6.19,21-2.47,26s-8.65,24.72-8.65,24.72,8.65,24.73-35.86,29.67c0,0-24.72,4.95-34.61,17.31,0,0-28.44,8.66-32.15,28.44s-6.18,30.9-28.43,4.94-21-35.85-21-35.85,2.47-26-9.89-43.27,13.6-27.2-24.72-47l-32.15-3.71s-50.69-26-14.83-29.67S512.33,137.78,512.33,137.78Z"/><path class="cls-2" d="M704.4,272.86s-4.95,24.73,23.49,17.31L741.49,279Z"/><path class="cls-2" d="M812.16,317.14s2.47,17.31-7.42,22.26-6.18,33.38,11.13,12.36S828.23,353,828.23,353s-27.19,8.65,4.95,16.07c0,0,9.89-2.48-4.95,14.83,0,0,13.6,24.73-3.71,27.2s-30.9,17.31-16.07,40.8c0,0,7.42,8.65-33.38,58.11,0,0-29.67,22.25-3.71,70.46s87.78,32.15,87.78,32.15,23.49-9.48,26.38,15.25a59,59,0,0,0,20.19,37.91s11.54,9.89,4.12,43.68,14.42,47,14.42,47,73.36-110,67.18-237.37l-.83-35s-12.77.42-18.54-4.12-14.43-11.95-26.79-1.65-33.38-5.77-33.38-5.77-13.19-29.25-31.73-25.13-47.39,3.29-47.39,3.29,15.66-9.48,14.42-19.78c0,0,17.72-4.53,19-16.07,0,0,29.67,1.65,30.49-4.53,0,0,19,21,25.55,21.43l.41,8.65-12.77,2.89s2.06,11.95,11.54,9.89a10.8,10.8,0,0,0,4.94-8.66s12.37-12.36-1.23-21c0,0-18.14-13.18-17.31-24.72,0,0,22.66,23.08,32.14,20.6,0,0,1.24,11.54,8.66,20.2s9.89,11.12,7.41,15.24,11.13,2.89,12.37-10.71l-7.42-11.54s11.54-8.65,12.36.41,5.77,23.9,14.84,20.61c0,0-4.12-92.31-33.38-132.7,0,0-5.77-3.71-6.6,13.6,0,0-1.64,6.18-40.79,10.3l-.83-6.59s24.73-3.3,23.08-15.25c0,0-2.06-7.42,5.77-11.54s2.47-14.42-5-14.83l-1.23-7.42,6.59-3.71s-8.24-26-20.6-39.56c0,0-6.6,2.47-9.07,14.84,0,0-25.55,17.72-27.2,28.43s-17.72,24.73-2.47,25.55,18.54.82,18.54.82-1.64,28-21.43,38.74S856.67,367,856.67,367s-15.25-27.2-23.9-33L834,312.61Z"/><path class="cls-2" d="M89.27,247.7l-41,73.23s81.89-26.55,111.18,13.48,47.84,40,37.1,74.21c0,0,4.88,33.19,52.72,52.72,0,0,34.18,33.2,22.46,43.94,0,0,1.95,17.57,40,14.64,0,0,20.5,13.67,30.27,10.74,0,0,6,23.07,21.94,18.06a20.92,20.92,0,0,0,3.44-1.46c18.55-9.76,10.74,25.39,10.74,25.39s-20.5,5.86-5.85,38.07c0,0,6.83,33.2,29.29,35.15,0,0,18.55,5.86,0,34.18,0,0-14.65,51.74-10.74,60.53S385,785.49,385,785.49s1,38.08,37.1,31.25c0,0-21.15-18.55-4.56-29.29,0,0,10.74-12.05,2.93-20.83,0,0,12-2.61,8.46-15.3,0,0,31.25-19.2,46.87-36.45,0,0,9.76-26,18.23-26.69L487.83,681s32.55-4.88,35.15-29.94l2.6-21.48s37.76-18.55,4.56-39.7c0,0-40.68-3.91-48.17-21.48,0,0,3.91-15.95-25.06-12,0,0-14-28-38.4-19.85,0,0-25.71-12-34.82.65l-4.23,5.21s-28.32,2.93-25.06-11.07-3.91-14-3.91-14l-15.3-1.63s15.3-27,1-22.45c0,0-16.27,16.59-27.34,11.39s-13.67-29.94-7.16-36.13S343,447.67,351.79,462s19.2,27.34,15.3,6.51-3.26-21.15,11.06-28c0,0,9.77-4.55,11.07-22.78,0,0,15-5.21,15-13.34s44.26-2.93,33.52-15.3l-7.48-5.21s15.62-30.59,16.27-10.74c0,0-2.28,9.12,8.14,10.42s21.8-2.61,16.27-10.74-10.74-12-14.65-28.64c0,0-16.27-21.81-22.78-20.51l-3.25-8.78-18.55,7.16s3.25-12.7-10.42-18.55-20.5-10.09-26.69,9.76c0,0,7.16,19.85,1,27.34,0,0-7.81,2.28-5.21,15.29,0,0-1.3,15.63-7.81,2s-9.76-19.2-18.55-18.23c0,0-17.9-18.55-28.64-16.92,0,0-8.46-10.74,5.53-23.11s9.12-11.39,19.86-3.9,18.22,7.48,18.87-8.79,1.3-22.46,1.3-22.46l27.67-1.3s9.76-.33,2.28,9.44-6.19,14,4.55,17.57,20.18,17.58,28,11.07-6.18-18.88-6.18-18.88l-1-6.83s21.81,6.83,8.79-8.79-9.44-19.2-9.44-19.2-49.47-15.62-43.28-43.29c0,0,18.22-18.87,19.85-26.68,0,0,57.28-22.46,34.17-30,0,0-43-9.11-98,9.12,0,0-16.6,5.86-27,18.87,0,0-.65,13.67-26.37,14.65s-52.39,10.09-59.23,17.57-33.52,46.54-47.51,46.54c0,0-2,4.23-45.57-4.23C122.67,250.12,118.36,247.24,89.27,247.7Z"/><path class="cls-2" d="M351.79,494.21s16.93-7.16,18.88,2.61S394.1,502,394.1,502s2.6,10.42,7.16,10.42,10.42-4.56,10.42-4.56,9.11,1.3,11.06.65-3.25-5.2-15.62-5.2c0,0-2.6-3.91-11.72-3.91,0,0-20.18-6.51-25.38-9.11a19.43,19.43,0,0,0-15.3-1.63C346.18,491.36,351.79,494.21,351.79,494.21Z"/></svg>