<svg xmlns="http://www.w3.org/2000/svg" viewBox="0 0 1920 1080"><defs><style>.cls-1{fill:#6f78c6;}.cls-2{fill:#5a67b7;}.cls-3{fill:#7d6fc9;}.cls-4{fill:#645cb7;}.cls-5{fill:#fff;}.cls-6{fill:#e3e5e5;}.cls-7{fill:#3f774f;}.cls-8{fill:#315e3d;}</style></defs><title>Artboard 1</title><g id="mountains"><polyline class="cls-1" points="1457 356 1139 1000 1457 1000"/><polyline class="cls-2" points="1457 1000 1775 1000 1457 356"/><polyline class="cls-3" points="1049.85 524 763.7 999.91 1049.85 999.91"/><polyline class="cls-4" points="1049.85 999.91 1336 999.91 1049.85 524"/><polygon class="cls-2" points="527 189 527 1000 894.15 1000 527 189"/><polygon class="cls-1" points="159.7 1000 526.85 1000 526.85 189 159.7 1000"/></g><g id="peaks"><polyline class="cls-5" points="526.84 189 438.41 383.31 489.6 354.22 526.84 438"/><polyline class="cls-6" points="526.84 438 560.58 354.22 617.59 390.29 526.84 189"/><polyline class="cls-5" points="1050 524 987.62 627.56 1023.8 612.59 1050 660"/><polyline class="cls-6" points="1050 660 1077.45 612.59 1112.38 627.56 1050 524"/><polyline class="cls-5" points="1457.16 356 1372.5 526.64 1420.12 505.48 1457.16 565"/><polyline class="cls-6" points="1457.16 565 1492.88 505.48 1540.5 526.64 1457.16 356"/></g><g id="valley"><path class="cls-7" d="M0,869s320-78,560,61c253,111,699-17,699-17s307-142,661,45v122H0Z"/><path class="cls-8" d="M0,963.59V1080H1920V964s-230,101-639,58c-273-22-369-100-545-101s-381,79-515,79.5C111,1000,0,963.59,0,963.59"/></g></svg>